# xmcd
#
# Track frame offsets:
#	150
#	26817
#	49246
#	77268
#	94023
#	104496
#
# Disc length: 2805 seconds
#
# Revision: 2
# Processed by: cddbd v1.4PL0 Copyright (c) Steve Scherf et al.
# Submitted via: EasyCDDAExtractor 5.0.6
#
DISCID=410af306
DTITLE=Pink Floyd - Meddle
DYEAR=1971
DGENRE=Blues
TTITLE0=One of These Days
TTITLE1=A Pillow of Winds
TTITLE2=Fearless
TTITLE3=San Tropez
TTITLE4=Seamus
TTITLE5=Echoes
EXTD=
EXTT0=
EXTT1=
EXTT2=
EXTT3=
EXTT4=
EXTT5=
PLAYORDER=
